<svg xmlns="http://www.w3.org/2000/svg" width="21.696" height="21.695" viewBox="0 0 21.696 21.695"><defs><style>.a{fill:#fff;}</style></defs><path class="a" d="M21.7,8.609v0c0-.018,0-.036,0-.054l0-.015q0-.021-.006-.042l0-.015c0-.017-.007-.033-.012-.05v0c0-.017-.011-.033-.017-.049l-.008-.018-.015-.032-.009-.019c-.008-.015-.016-.029-.025-.044l-.011-.016-.022-.03L21.55,8.2c-.011-.014-.023-.027-.035-.039l0,0c-.013-.013-.027-.026-.041-.038l-.005,0-1.084-.9V4.455A1.485,1.485,0,0,0,18.9,2.972H15.264L12.336.542a2.332,2.332,0,0,0-2.977,0L6.431,2.972H2.8A1.485,1.485,0,0,0,1.314,4.455V7.219l-1.084.9-.005,0C.21,8.135.2,8.148.183,8.161l0,0C.168,8.177.156,8.19.145,8.2l-.013.016-.022.03L.1,8.265c-.009.014-.018.029-.025.044l-.009.019L.05,8.36l-.008.018c-.006.016-.012.033-.017.049v0c0,.016-.009.033-.012.05l0,.015q0,.021-.006.042l0,.015c0,.018,0,.036,0,.054v0H0V19.37a2.324,2.324,0,0,0,.731,1.692c.013.013.026.025.039.037a2.321,2.321,0,0,0,1.561.6H19.365a2.321,2.321,0,0,0,1.561-.6c.014-.011.026-.024.039-.037A2.324,2.324,0,0,0,21.7,19.37V8.61h0ZM2.8,4.243H18.9a.212.212,0,0,1,.212.212V9.4l-.36.3-7.227,6a1.06,1.06,0,0,1-1.353,0l-7.227-6-.36-.3V4.455A.212.212,0,0,1,2.8,4.243ZM1.271,19.37V9.961l.273.227h0l6.207,5.151-6.415,4.4a1.054,1.054,0,0,1-.065-.366Zm7.5-3.187.591.49a2.332,2.332,0,0,0,2.977,0l.591-.49,6.2,4.246H2.573Zm5.175-.844,6.206-5.151h0l.273-.227V19.37a1.054,1.054,0,0,1-.065.366ZM10.171,1.52a1.06,1.06,0,0,1,1.353,0l1.749,1.452H8.422Z" transform="translate(0 -0.005)"/><path class="a" d="M131.5,150.631a.636.636,0,0,0,.636.636h6.017a.636.636,0,1,0,0-1.271h-6.017A.636.636,0,0,0,131.5,150.631Z" transform="translate(-125.928 -143.639)"/><path class="a" d="M132.136,211.266h9.28a.636.636,0,1,0,0-1.271h-9.28a.636.636,0,0,0,0,1.271Z" transform="translate(-125.928 -201.097)"/></svg>